<?xml version="1.0" standalone="no"?>
<!DOCTYPE svg PUBLIC "-//W3C//DTD SVG 20010904//EN"
 "http://www.w3.org/TR/2001/REC-SVG-20010904/DTD/svg10.dtd">
<svg version="1.0" xmlns="http://www.w3.org/2000/svg"
 width="368.000000pt" height="368.000000pt" viewBox="0 0 368.000000 368.000000"
 preserveAspectRatio="xMidYMid meet">
<metadata>
Created by potrace 1.14, written by Peter Selinger 2001-2017
</metadata>
<g transform="translate(0.000000,368.000000) scale(0.100000,-0.100000)"
fill="#000000" stroke="none">
<path d="M1125 2560 c-249 -15 -467 -57 -620 -119 -203 -83 -303 -158 -356
-269 -24 -49 -28 -134 -9 -185 16 -41 34 -81 40 -87 3 -3 20 -25 39 -50 89
-117 295 -256 526 -355 22 -9 49 -21 60 -26 70 -30 324 -119 400 -139 145 -40
321 -83 370 -91 33 -6 85 -15 115 -20 30 -6 89 -14 130 -20 41 -5 109 -14 150
-20 120 -16 688 -23 820 -10 216 22 395 62 525 116 123 52 189 94 248 159 119
132 98 290 -61 457 -66 69 -209 189 -226 189 -4 0 -27 13 -51 30 -66 46 -277
145 -431 203 -120 45 -251 85 -384 117 -19 5 -53 13 -75 19 -98 25 -345 65
-560 90 -123 14 -491 20 -650 11z m20 -221 c44 -5 116 -14 160 -20 44 -6 108
-14 143 -18 68 -8 86 -19 76 -45 -7 -19 -23 -19 -171 0 -65 8 -67 -1 -14 -59
35 -38 152 -107 180 -107 16 0 13 -26 -4 -40 -12 -10 -24 -9 -63 5 -59 23 -95
46 -154 103 l-47 45 -62 -32 c-104 -56 -220 -76 -239 -42 -17 33 -12 41 28 41
53 0 135 24 187 55 51 30 59 55 18 55 -16 0 -63 5 -105 12 -77 11 -78 12 -78
41 0 28 2 29 33 23 17 -4 68 -11 112 -17z m695 -120 c181 -23 185 -23 188 -42
4 -20 -33 -88 -75 -138 -56 -66 -207 -139 -288 -139 -38 0 -67 26 -45 40 8 5
33 12 55 16 57 9 154 55 198 94 32 28 67 77 67 94 0 3 -21 8 -47 11 -206 27
-221 32 -201 68 8 15 16 18 41 13 18 -4 66 -11 107 -17z m424 -8 c3 -5 -1 -51
-9 -102 -8 -52 -19 -121 -24 -154 -6 -33 -13 -77 -16 -97 -5 -32 -10 -38 -30
-38 -34 0 -36 9 -26 86 11 78 8 84 -51 84 -52 0 -88 16 -88 39 0 25 10 28 83
20 34 -3 65 -5 68 -3 3 2 11 36 18 76 7 40 15 79 17 86 4 14 50 17 58 3z m648
-91 c7 0 8 -19 5 -52 -8 -73 -25 -187 -33 -220 -5 -24 -3 -28 22 -33 68 -14
79 -20 79 -45 0 -24 -2 -25 -57 -22 -63 4 -61 7 -72 -83 -4 -39 -20 -147 -34
-235 -6 -37 -11 -46 -31 -48 -28 -4 -41 13 -36 48 6 37 23 150 35 230 32 214
38 249 61 383 15 85 17 90 35 83 9 -3 20 -6 26 -6z m-412 -31 c220 -28 225
-30 218 -65 -3 -16 -12 -19 -48 -16 -25 1 -65 7 -90 12 -25 5 -67 11 -95 12
l-49 3 -12 -55 c-14 -69 -35 -212 -37 -264 l-2 -40 95 -12 c52 -7 132 -15 178
-19 78 -7 82 -9 76 -29 -9 -30 -9 -30 -67 -27 -68 3 -317 30 -339 37 -21 6
-22 32 -8 113 5 31 14 90 20 131 12 79 28 179 36 218 4 21 9 23 32 17 15 -4
56 -11 92 -16z m-1502 -19 c222 -24 563 -77 574 -88 6 -6 8 -18 4 -28 -7 -19
-31 -18 -256 15 -80 11 -176 25 -215 31 -236 32 -235 32 -235 55 0 28 9 37 32
29 10 -3 53 -9 96 -14z m62 -131 c47 -6 117 -15 155 -20 39 -5 105 -14 148
-19 43 -5 84 -13 91 -19 14 -12 10 -108 -6 -150 -8 -21 -12 -23 -51 -17 -23 4
-73 11 -112 16 -38 5 -99 14 -135 19 -152 25 -147 25 -153 1 -10 -38 2 -48 61
-55 32 -3 77 -10 102 -15 25 -5 100 -17 167 -26 125 -18 143 -27 119 -59 -11
-16 -20 -17 -77 -7 -98 18 -380 61 -414 64 l-30 3 3 65 c1 36 5 76 8 89 6 26
-1 26 174 1 36 -5 101 -13 145 -19 44 -6 86 -13 95 -16 22 -7 37 6 41 34 5 32
0 33 -296 72 -136 18 -145 20 -145 38 0 18 8 31 19 31 3 0 44 -5 91 -11z m695
-98 c15 -6 20 -17 20 -46 0 -34 3 -39 30 -47 32 -9 145 -24 257 -35 l67 -6 7
42 c7 42 22 51 53 32 12 -8 13 -20 3 -74 -7 -35 -12 -78 -12 -95 0 -17 -5 -54
-12 -82 l-12 -52 -35 6 c-135 22 -268 40 -383 52 -57 6 -58 7 -58 38 0 40 27
237 36 260 7 18 10 18 39 7z"/>
<path d="M1755 1656 c-11 -55 -3 -64 62 -70 32 -4 85 -10 118 -16 157 -25 164
-25 175 6 6 15 10 37 8 48 -3 23 -11 25 -178 45 -47 6 -106 14 -132 17 l-47 6
-6 -36z"/>
</g>
</svg>
